<svg width="1731" height="1731" viewBox="0 0 1731 1731" fill="none" xmlns="http://www.w3.org/2000/svg">
<rect width="1731" height="1731" rx="8" fill="url(#paint0_linear_649_332)"/>
<path d="M855.073 396.252L819.714 491.776C773.391 617.04 750.229 679.672 704.523 725.378C658.817 771.084 596.185 794.245 470.922 840.568L375.398 875.927L470.922 911.286C596.185 957.609 658.817 980.839 704.523 1026.48C750.229 1072.11 773.391 1134.81 819.714 1260.08L855.073 1355.6L890.432 1260.08C936.754 1134.81 959.984 1072.18 1005.62 1026.48C1051.26 980.77 1113.96 957.609 1239.22 911.286L1334.75 875.927L1239.22 840.568C1113.96 794.245 1051.33 771.084 1005.62 725.378C959.916 679.672 936.754 617.04 890.432 491.776L855.073 396.252Z" fill="#001A6E"/>
<defs>
<linearGradient id="paint0_linear_649_332" x1="1529.05" y1="2.55646e-05" x2="0" y2="1731" gradientUnits="userSpaceOnUse">
<stop stop-color="white"/>
<stop offset="1" stop-color="#DBECF3"/>
</linearGradient>
</defs>
</svg>
